<?xml version="1.0" standalone="no"?>
<!DOCTYPE svg PUBLIC "-//W3C//DTD SVG 20010904//EN"
 "http://www.w3.org/TR/2001/REC-SVG-20010904/DTD/svg10.dtd">
<svg version="1.0" xmlns="http://www.w3.org/2000/svg"
 width="431.000000pt" height="431.000000pt" viewBox="0 0 431.000000 431.000000"
 preserveAspectRatio="xMidYMid meet">
<metadata>
Created by potrace 1.11, written by Peter Selinger 2001-2013
</metadata>
<g transform="translate(0.000000,431.000000) scale(0.100000,-0.100000)"
fill="#000000" stroke="none">
<path d="M2009 4226 c-2 -2 -33 -6 -69 -9 -351 -32 -749 -193 -1040 -420 -107
-84 -212 -183 -301 -287 -267 -309 -437 -699 -486 -1110 -19 -160 -7 -489 23
-620 3 -14 8 -36 10 -50 9 -48 36 -146 61 -220 239 -715 861 -1250 1603 -1379
119 -21 134 -22 315 -26 573 -11 1075 188 1491 592 276 269 491 659 570 1036
43 208 53 584 19 757 -3 14 -10 52 -16 84 -14 80 -78 299 -89 310 -6 6 -10 17
-10 26 0 26 -127 277 -186 368 -293 450 -747 774 -1249 892 -180 43 -257 52
-456 56 -103 2 -188 2 -190 0z"/>
</g>
</svg>
